<?xml version="1.0"?>
<svg xmlns="http://www.w3.org/2000/svg" xmlns:xlink="http://www.w3.org/1999/xlink" xmlns:svgjs="http://svgjs.com/svgjs" version="1.1" width="512" height="512" x="0" y="0" viewBox="0 0 512 512" style="enable-background:new 0 0 512 512" xml:space="preserve" class=""><g><path xmlns="http://www.w3.org/2000/svg" d="m408 496a40.04552 40.04552 0 0 0 40-40v-298.74512a39.73513 39.73513 0 0 0 -11.71582-28.28418l-101.25391-101.25488-.001-.00049a39.74137 39.74137 0 0 0 -28.28415-11.71533h-202.74512a40.04552 40.04552 0 0 0 -40 40v400a40.04552 40.04552 0 0 0 40 40zm-328-40v-400a24.0275 24.0275 0 0 1 24-24h202.74512a24.18915 24.18915 0 0 1 5.25488.581v79.419a40.04552 40.04552 0 0 0 40 40h48v-16h-48a24.02718 24.02718 0 0 1 -24-24v-68.68652l96.9707 96.97119a23.83889 23.83889 0 0 1 7.0293 16.97021v298.74512a24.0275 24.0275 0 0 1 -24 24h-304a24.0275 24.0275 0 0 1 -24-24z" fill="#1b9d48" data-original="#000000" style="" class=""/><path xmlns="http://www.w3.org/2000/svg" d="m120 272h56v128a40.04552 40.04552 0 0 0 40 40h144a40.04552 40.04552 0 0 0 40-40v-32a8.00008 8.00008 0 0 0 -8-8h-40v-136a40.04552 40.04552 0 0 0 -40-40h-160a40.04552 40.04552 0 0 0 -40 40v40a8.00008 8.00008 0 0 0 8 8zm264 128a24.0275 24.0275 0 0 1 -24 24h-112.01855a39.79847 39.79847 0 0 0 8.01855-24v-24h128zm-48-176v136h-88a8.00008 8.00008 0 0 0 -8 8v32a24 24 0 0 1 -48 0v-176a39.79015 39.79015 0 0 0 -8.022-24h128.022a24.0275 24.0275 0 0 1 24 24zm-208 0a24 24 0 0 1 48 0v32h-48z" fill="#1b9d48" data-original="#000000" style="" class=""/><path xmlns="http://www.w3.org/2000/svg" d="m224 232h40v16h-40z" fill="#1b9d48" data-original="#000000" style="" class=""/><path xmlns="http://www.w3.org/2000/svg" d="m224 272h24v16h-24z" fill="#1b9d48" data-original="#000000" style="" class=""/><path xmlns="http://www.w3.org/2000/svg" d="m264 272h48v16h-48z" fill="#1b9d48" data-original="#000000" style="" class=""/><path xmlns="http://www.w3.org/2000/svg" d="m224 312h40v16h-40z" fill="#1b9d48" data-original="#000000" style="" class=""/><path xmlns="http://www.w3.org/2000/svg" d="m280 312h32v16h-32z" fill="#1b9d48" data-original="#000000" style="" class=""/><path xmlns="http://www.w3.org/2000/svg" d="m280 232h16v16h-16z" fill="#1b9d48" data-original="#000000" style="" class=""/><path xmlns="http://www.w3.org/2000/svg" d="m200 72h88v16h-88z" fill="#1b9d48" data-original="#000000" style="" class=""/><path xmlns="http://www.w3.org/2000/svg" d="m152 72h24v16h-24z" fill="#1b9d48" data-original="#000000" style="" class=""/><path xmlns="http://www.w3.org/2000/svg" d="m248 120h40v16h-40z" fill="#1b9d48" data-original="#000000" style="" class=""/><path xmlns="http://www.w3.org/2000/svg" d="m168 120h56v16h-56z" fill="#1b9d48" data-original="#000000" style="" class=""/><path xmlns="http://www.w3.org/2000/svg" d="m112 120h32v16h-32z" fill="#1b9d48" data-original="#000000" style="" class=""/></g></svg>
