<?xml version="1.0"?>
<svg xmlns="http://www.w3.org/2000/svg" xmlns:xlink="http://www.w3.org/1999/xlink" xmlns:svgjs="http://svgjs.com/svgjs" version="1.1" width="512" height="512" x="0" y="0" viewBox="0 0 512 512" style="enable-background:new 0 0 512 512" xml:space="preserve" class=""><g><g xmlns="http://www.w3.org/2000/svg"><path d="m137.552 0-79.117 79.117v432.883h395.131v-512zm8.173 34.253v53.037h-53.037zm277.84 447.747h-335.13v-364.71h87.29v-87.29h247.841v452z" fill="#1b9d48" data-original="#000000" style="" class=""/><path d="m333.403 352.707 60.162-45.069v-15.986l-60.162-45.069-17.986 24.01 38.78 29.052-38.78 29.052z" fill="#1b9d48" data-original="#000000" style="" class=""/><path d="m178.597 246.583-60.162 45.069v15.986l60.162 45.069 17.986-24.01-38.78-29.052 38.78-29.052z" fill="#1b9d48" data-original="#000000" style="" class=""/><path d="m195.266 284.645h121.468v30h-121.468z" transform="matrix(.416 -.91 .91 .416 -122.93 407.974)" fill="#1b9d48" data-original="#000000" style="" class=""/></g></g></svg>
