<svg width="62" height="62" viewBox="0 0 62 62" fill="none" xmlns="http://www.w3.org/2000/svg">
<rect x="0.5" y="0.5" width="61" height="61" rx="30.5" stroke="#3D4F40"/>
<path d="M15.0877 51.072C14.8597 51.072 14.6477 51.038 14.4517 50.97C14.2597 50.902 14.0917 50.804 13.9477 50.676C13.8037 50.544 13.6917 50.384 13.6117 50.196C13.5317 50.004 13.4917 49.788 13.4917 49.548C13.4917 49.304 13.5337 49.088 13.6177 48.9C13.7057 48.708 13.8237 48.546 13.9717 48.414C14.1197 48.282 14.2917 48.182 14.4877 48.114C14.6877 48.046 14.8977 48.012 15.1177 48.012C15.3577 48.012 15.5637 48.054 15.7357 48.138C15.9117 48.222 16.0597 48.322 16.1797 48.438L15.9337 48.756C15.8137 48.652 15.6877 48.57 15.5557 48.51C15.4277 48.45 15.2877 48.42 15.1357 48.42C14.9677 48.42 14.8137 48.448 14.6737 48.504C14.5337 48.556 14.4137 48.632 14.3137 48.732C14.2177 48.832 14.1417 48.952 14.0857 49.092C14.0297 49.228 14.0017 49.38 14.0017 49.548C14.0017 49.716 14.0277 49.868 14.0797 50.004C14.1357 50.14 14.2117 50.258 14.3077 50.358C14.4077 50.454 14.5257 50.53 14.6617 50.586C14.8017 50.638 14.9557 50.664 15.1237 50.664C15.3037 50.664 15.4677 50.63 15.6157 50.562C15.7677 50.49 15.9037 50.402 16.0237 50.298L16.2457 50.616C16.0817 50.76 15.9017 50.872 15.7057 50.952C15.5097 51.032 15.3037 51.072 15.0877 51.072ZM17.3954 52.254C17.2514 52.254 17.1234 52.234 17.0114 52.194L17.1134 51.804C17.1534 51.816 17.1954 51.826 17.2394 51.834C17.2874 51.842 17.3334 51.846 17.3774 51.846C17.5814 51.846 17.7474 51.786 17.8754 51.666C18.0034 51.55 18.1034 51.402 18.1754 51.222L18.2654 51.006L16.9034 48.084H17.4014L18.1154 49.698C18.1714 49.826 18.2294 49.964 18.2894 50.112C18.3534 50.26 18.4154 50.404 18.4754 50.544H18.4994C18.5514 50.404 18.6034 50.262 18.6554 50.118C18.7114 49.97 18.7634 49.83 18.8114 49.698L19.4474 48.084H19.9154L18.6314 51.24C18.5754 51.384 18.5114 51.518 18.4394 51.642C18.3674 51.766 18.2814 51.872 18.1814 51.96C18.0814 52.052 17.9654 52.124 17.8334 52.176C17.7054 52.228 17.5594 52.254 17.3954 52.254ZM22.127 51.072C21.987 51.072 21.835 51.038 21.671 50.97C21.511 50.898 21.361 50.8 21.221 50.676H21.203L21.161 51H20.765V46.728H21.257V47.892L21.239 48.456H21.257C21.389 48.32 21.541 48.212 21.713 48.132C21.889 48.052 22.063 48.012 22.235 48.012C22.431 48.012 22.605 48.048 22.757 48.12C22.909 48.188 23.035 48.288 23.135 48.42C23.239 48.548 23.317 48.704 23.369 48.888C23.421 49.068 23.447 49.27 23.447 49.494C23.447 49.742 23.411 49.964 23.339 50.16C23.267 50.356 23.169 50.522 23.045 50.658C22.925 50.794 22.785 50.898 22.625 50.97C22.465 51.038 22.299 51.072 22.127 51.072ZM22.049 50.658C22.177 50.658 22.295 50.632 22.403 50.58C22.511 50.524 22.605 50.448 22.685 50.352C22.765 50.252 22.827 50.13 22.871 49.986C22.915 49.842 22.937 49.68 22.937 49.5C22.937 49.34 22.921 49.194 22.889 49.062C22.857 48.93 22.807 48.818 22.739 48.726C22.675 48.63 22.591 48.556 22.487 48.504C22.383 48.452 22.259 48.426 22.115 48.426C21.987 48.426 21.849 48.462 21.701 48.534C21.557 48.602 21.409 48.712 21.257 48.864V50.316C21.397 50.44 21.537 50.528 21.677 50.58C21.821 50.632 21.945 50.658 22.049 50.658ZM25.7847 51.072C25.5647 51.072 25.3587 51.038 25.1667 50.97C24.9787 50.902 24.8127 50.802 24.6687 50.67C24.5287 50.538 24.4167 50.378 24.3327 50.19C24.2527 49.998 24.2127 49.78 24.2127 49.536C24.2127 49.3 24.2527 49.088 24.3327 48.9C24.4167 48.712 24.5267 48.552 24.6627 48.42C24.8027 48.288 24.9607 48.188 25.1367 48.12C25.3167 48.048 25.5047 48.012 25.7007 48.012C25.9087 48.012 26.0947 48.046 26.2587 48.114C26.4267 48.178 26.5667 48.27 26.6787 48.39C26.7947 48.51 26.8827 48.654 26.9427 48.822C27.0027 48.99 27.0327 49.176 27.0327 49.38C27.0327 49.436 27.0307 49.49 27.0267 49.542C27.0227 49.594 27.0167 49.64 27.0087 49.68H24.7107C24.7427 50.012 24.8627 50.262 25.0707 50.43C25.2827 50.594 25.5407 50.676 25.8447 50.676C26.0207 50.676 26.1787 50.652 26.3187 50.604C26.4627 50.552 26.6007 50.484 26.7327 50.4L26.9127 50.724C26.7687 50.82 26.6027 50.902 26.4147 50.97C26.2307 51.038 26.0207 51.072 25.7847 51.072ZM25.7127 48.402C25.5927 48.402 25.4767 48.422 25.3647 48.462C25.2567 48.502 25.1587 48.56 25.0707 48.636C24.9827 48.708 24.9087 48.8 24.8487 48.912C24.7887 49.024 24.7467 49.152 24.7227 49.296H26.5827C26.5627 48.996 26.4747 48.772 26.3187 48.624C26.1667 48.476 25.9647 48.402 25.7127 48.402ZM28.2783 51V48.084H28.6863L28.7283 48.774H28.7463C28.8983 48.538 29.0843 48.352 29.3043 48.216C29.5283 48.08 29.7763 48.012 30.0483 48.012C30.1563 48.012 30.2563 48.022 30.3483 48.042C30.4403 48.058 30.5323 48.088 30.6243 48.132L30.5103 48.558C30.4063 48.522 30.3183 48.496 30.2463 48.48C30.1783 48.464 30.0863 48.456 29.9703 48.456C29.7503 48.456 29.5383 48.52 29.3343 48.648C29.1343 48.772 28.9463 48.986 28.7703 49.29V51H28.2783ZM31.51 49.206V48.834H34.09V49.206H31.51ZM35.2817 51L34.6457 48.084H35.1377L35.4857 49.776C35.5137 49.916 35.5377 50.05 35.5577 50.178C35.5777 50.306 35.5977 50.44 35.6177 50.58H35.6417C35.6617 50.44 35.6857 50.306 35.7137 50.178C35.7457 50.046 35.7777 49.912 35.8097 49.776L36.1697 48.264H36.6617L37.0097 49.776C37.0417 49.916 37.0737 50.05 37.1057 50.178C37.1417 50.306 37.1697 50.44 37.1897 50.58H37.2137C37.2377 50.44 37.2577 50.306 37.2737 50.178C37.2937 50.05 37.3177 49.916 37.3457 49.776L37.6937 48.084H38.1497L37.5257 51H36.8897L36.5537 49.608C36.5057 49.404 36.4577 49.116 36.4097 48.744H36.3857C36.3377 49.116 36.2897 49.404 36.2417 49.608L35.9177 51H35.2817ZM39.6473 51V48.486H38.8133V48.114L39.6473 48.084V47.838C39.6473 47.482 39.7413 47.196 39.9293 46.98C40.1213 46.764 40.4193 46.656 40.8233 46.656C41.1113 46.656 41.3913 46.712 41.6633 46.824L41.5493 47.196C41.4293 47.14 41.3173 47.104 41.2133 47.088C41.1133 47.068 40.9993 47.058 40.8713 47.058C40.6073 47.058 40.4173 47.126 40.3013 47.262C40.1893 47.394 40.1333 47.58 40.1333 47.82V48.084H41.3573V48.486H40.1333V51H39.6473ZM42.375 51V50.592H43.479V47.772H42.621V47.454C42.849 47.422 43.039 47.384 43.191 47.34C43.343 47.296 43.481 47.24 43.605 47.172H43.971V50.592H44.973V51H42.375ZM47.1126 51.072C46.7806 51.072 46.5026 51.018 46.2786 50.91C46.0546 50.798 45.8726 50.672 45.7326 50.532L45.9846 50.208C46.1126 50.328 46.2646 50.434 46.4406 50.526C46.6206 50.618 46.8346 50.664 47.0826 50.664C47.2146 50.664 47.3366 50.648 47.4486 50.616C47.5606 50.58 47.6566 50.532 47.7366 50.472C47.8206 50.412 47.8846 50.34 47.9286 50.256C47.9766 50.168 48.0006 50.07 48.0006 49.962C48.0006 49.85 47.9746 49.748 47.9226 49.656C47.8746 49.56 47.7946 49.478 47.6826 49.41C47.5706 49.342 47.4266 49.29 47.2506 49.254C47.0746 49.218 46.8606 49.2 46.6086 49.2V48.822C46.8366 48.822 47.0286 48.804 47.1846 48.768C47.3446 48.732 47.4746 48.682 47.5746 48.618C47.6746 48.554 47.7466 48.478 47.7906 48.39C47.8386 48.302 47.8626 48.208 47.8626 48.108C47.8626 47.92 47.7906 47.772 47.6466 47.664C47.5066 47.556 47.3186 47.502 47.0826 47.502C46.9026 47.502 46.7326 47.538 46.5726 47.61C46.4126 47.682 46.2686 47.776 46.1406 47.892L45.8766 47.58C46.0366 47.44 46.2186 47.326 46.4226 47.238C46.6266 47.146 46.8526 47.1 47.1006 47.1C47.2806 47.1 47.4466 47.122 47.5986 47.166C47.7546 47.21 47.8886 47.274 48.0006 47.358C48.1166 47.438 48.2066 47.538 48.2706 47.658C48.3346 47.778 48.3666 47.916 48.3666 48.072C48.3666 48.304 48.2906 48.494 48.1386 48.642C47.9866 48.79 47.7906 48.904 47.5506 48.984V49.008C47.6786 49.036 47.7986 49.078 47.9106 49.134C48.0266 49.186 48.1286 49.254 48.2166 49.338C48.3046 49.418 48.3726 49.512 48.4206 49.62C48.4726 49.728 48.4986 49.848 48.4986 49.98C48.4986 50.148 48.4626 50.3 48.3906 50.436C48.3186 50.572 48.2186 50.688 48.0906 50.784C47.9666 50.876 47.8206 50.948 47.6526 51C47.4846 51.048 47.3046 51.072 47.1126 51.072Z" fill="url(#paint0_linear)"/>
<path d="M30.9594 11.3607C30.8558 11.3607 30.7565 11.4019 30.6832 11.4751C30.6099 11.5484 30.5688 11.6477 30.5688 11.7513V16.8438C30.5688 16.9474 30.6099 17.0467 30.6832 17.12C30.7565 17.1932 30.8558 17.2344 30.9594 17.2344C31.063 17.2344 31.1624 17.1932 31.2356 17.12C31.3089 17.0467 31.35 16.9474 31.35 16.8438V11.7513C31.35 11.6477 31.3089 11.5484 31.2356 11.4751C31.1624 11.4019 31.063 11.3607 30.9594 11.3607Z" fill="url(#paint1_linear)"/>
<path d="M29.5348 20.7446C29.485 20.7571 29.4382 20.7792 29.397 20.8098C29.3558 20.8404 29.321 20.8787 29.2946 20.9227C29.2682 20.9667 29.2508 21.0155 29.2432 21.0662C29.2357 21.117 29.2382 21.1687 29.2507 21.2185C29.2545 21.2341 29.6257 22.7615 28.9354 24.049C28.8864 24.1403 28.8758 24.2473 28.9057 24.3465C28.9357 24.4456 29.0038 24.5289 29.0951 24.5778C29.1864 24.6268 29.2935 24.6374 29.3926 24.6075C29.4918 24.5775 29.575 24.5094 29.624 24.4181C30.455 22.8675 30.0272 21.1031 30.0086 21.0287C29.9833 20.9283 29.9192 20.842 29.8304 20.7887C29.7416 20.7355 29.6353 20.7196 29.5348 20.7446Z" fill="url(#paint2_linear)"/>
<path d="M27.3158 17.9609C27.0449 17.9033 26.77 17.8667 26.4935 17.8515C26.4423 17.8495 26.3911 17.8576 26.343 17.8753C26.2948 17.893 26.2507 17.92 26.213 17.9548C26.1368 18.0251 26.0917 18.1227 26.0876 18.2262C26.0834 18.3297 26.1206 18.4307 26.1909 18.5068C26.2611 18.5829 26.3588 18.628 26.4623 18.6322C26.9528 18.6519 27.7748 18.8166 27.9819 19.1072C28.042 19.1916 28.1331 19.2487 28.2353 19.2659C28.3375 19.2831 28.4423 19.259 28.5267 19.1989C28.6111 19.1388 28.6682 19.0476 28.6854 18.9455C28.7026 18.8433 28.6785 18.7385 28.6185 18.654C28.3881 18.3303 27.9499 18.0971 27.3158 17.9609Z" fill="url(#paint3_linear)"/>
<path d="M45.42 22.75C45.4806 22.7781 45.5473 22.7902 45.6139 22.7851C45.6804 22.7801 45.7446 22.758 45.8002 22.7212C45.8558 22.6843 45.9011 22.6338 45.9316 22.5744C45.9622 22.5151 45.977 22.4489 45.9747 22.3822C45.9259 20.9441 44.6472 19.2873 43.3088 17.9375C43.9592 12.9219 43.271 9.48726 42.5722 7.48226C41.7927 5.24555 40.8388 4.23922 40.7988 4.19742C40.7494 4.14637 40.687 4.10972 40.6184 4.09142C40.5498 4.07311 40.4774 4.07383 40.4092 4.0935C40.3409 4.11317 40.2793 4.15106 40.231 4.20308C40.1826 4.25511 40.1493 4.31932 40.1347 4.38883C40.1302 4.41023 39.6503 6.55109 37.041 8.42789C36.3628 8.91554 35.6274 9.46969 34.9974 9.95226C34.6127 9.72226 34.0822 9.53351 33.4139 9.38976C31.9151 9.07572 30.3641 9.11122 28.8812 9.49351C28.2199 9.66203 27.6951 9.86429 27.3144 10.0963C26.982 9.83554 26.6254 9.60708 26.2495 9.41406C23.8691 8.26797 21.8516 4.33172 21.8315 4.29211C21.8033 4.23652 21.7623 4.18848 21.7117 4.152C21.6612 4.11552 21.6027 4.09166 21.541 4.08242C21.4794 4.07317 21.4164 4.07881 21.3574 4.09886C21.2984 4.1189 21.2451 4.15278 21.2018 4.19765C21.1616 4.23945 20.2077 5.24578 19.4284 7.4825C18.1746 11.0792 18.3258 15.1178 18.691 17.9383C17.3528 19.288 16.0745 20.9445 16.0256 22.3828C16.0233 22.4495 16.0382 22.5157 16.0687 22.575C16.0993 22.6344 16.1445 22.6849 16.2002 22.7218C16.2558 22.7587 16.3199 22.7807 16.3865 22.7857C16.453 22.7908 16.5198 22.7787 16.5803 22.7506L17.5297 22.3115C16.6313 23.6611 15.436 25.9161 15.5829 28.1948C15.5886 28.2829 15.624 28.3665 15.6833 28.4319C15.7426 28.4973 15.8223 28.5407 15.9094 28.555C15.9965 28.5694 16.086 28.5537 16.1631 28.5107C16.2402 28.4677 16.3004 28.3998 16.334 28.3181C16.4231 28.1047 16.5239 27.8962 16.6359 27.6938C16.3828 28.5312 16.1602 29.5017 16.19 30.2578C16.1933 30.3405 16.2227 30.42 16.2741 30.4848C16.3255 30.5497 16.3961 30.5965 16.4758 30.6187C16.5555 30.6408 16.6402 30.6371 16.7176 30.608C16.7951 30.5789 16.8613 30.526 16.9067 30.4569C17.1632 30.0743 17.4462 29.7101 17.7537 29.3672C17.7281 30.5598 17.9713 32.5625 19.602 34.1246C21.8471 36.2756 22.7226 37.4423 22.731 37.4536C22.7833 37.524 22.8578 37.5748 22.9425 37.5978C23.0272 37.6207 23.1171 37.6145 23.1978 37.5801C23.2785 37.5457 23.3453 37.4851 23.3874 37.4082C23.4295 37.3312 23.4445 37.2423 23.4299 37.1558L23.3564 36.7212C24.0393 37.6525 24.7845 38.7809 24.8988 39.3692C24.9307 39.5337 25.0166 39.9708 25.4093 39.9352C25.7831 39.9012 25.8228 39.5007 25.8546 39.1789C25.8764 38.9585 25.8953 38.655 25.9103 38.2769L25.9113 38.2542C27.0406 39.9417 29.2981 43.1128 30.7924 43.8714C30.8582 43.9046 30.9308 43.9219 31.0045 43.9219C31.0783 43.9219 31.1509 43.9046 31.2167 43.8714C32.7102 43.1131 34.9613 39.9452 36.0887 38.2566L36.0895 38.277C36.1046 38.6551 36.1235 38.9586 36.1453 39.179C36.1772 39.5008 36.2169 39.9012 36.5906 39.9352C36.9844 39.9702 37.0692 39.5338 37.1011 39.3693C37.2152 38.7815 37.9605 37.653 38.6435 36.7216L38.5699 37.1559C38.5553 37.2424 38.5702 37.3313 38.6123 37.4083C38.6544 37.4853 38.7211 37.5459 38.8018 37.5803C38.8825 37.6147 38.9725 37.621 39.0572 37.598C39.1419 37.5751 39.2164 37.5243 39.2687 37.4539C39.2773 37.4424 40.1528 36.2757 42.3978 34.1247C44.0284 32.5622 44.2717 30.5603 44.2462 29.3677C44.5536 29.7107 44.8366 30.0747 45.0931 30.4572C45.1386 30.5263 45.2048 30.5792 45.2823 30.6083C45.3597 30.6374 45.4444 30.6411 45.5241 30.619C45.6038 30.5968 45.6744 30.5499 45.7258 30.4851C45.7772 30.4202 45.8066 30.3407 45.8099 30.258C45.8397 29.503 45.6177 28.5334 45.3651 27.6965C45.4767 27.8981 45.5772 28.1056 45.6661 28.3181C45.6997 28.3998 45.7599 28.4678 45.837 28.5108C45.9142 28.5539 46.0036 28.5695 46.0908 28.5552C46.1779 28.5409 46.2577 28.4975 46.317 28.432C46.3763 28.3665 46.4116 28.2829 46.4173 28.1948C46.5641 25.9161 45.3688 23.6611 44.4705 22.3115L45.42 22.75ZM37.497 9.0625C39.4212 7.67836 40.2851 6.16734 40.652 5.29047C40.7639 5.4582 40.8926 5.66648 41.0295 5.91469C40.8409 6.5675 40.4396 7.22672 39.8347 7.87633C39.4197 8.32004 38.9566 8.7162 38.454 9.0575C36.684 10.2324 35.8843 11.4148 35.5249 12.2124C35.2689 11.8598 34.9374 11.5165 34.5249 11.3052C35.2344 10.7517 36.4375 9.82461 37.497 9.0625ZM21.4242 5.17859C22.0906 6.35226 23.8265 9.11453 25.9106 10.118C26.4303 10.368 27.0797 10.8903 27.5289 11.2801C27.1632 11.4657 26.8437 11.731 26.5941 12.0564C26.1935 11.4909 25.3549 10.6045 23.6192 9.44156C22.6653 8.8025 21.4447 7.67695 20.9695 5.9164C21.1084 5.66285 21.2601 5.41659 21.4242 5.17859ZM43.9675 28.0898C43.9025 28.0502 43.8274 28.0304 43.7513 28.0329C43.6752 28.0354 43.6016 28.0601 43.5393 28.1039C43.4771 28.1477 43.429 28.2088 43.401 28.2795C43.3729 28.3503 43.3662 28.4277 43.3816 28.5023C43.3877 28.5323 43.972 31.5343 41.8575 33.5602C40.832 34.5427 40.0892 35.3203 39.5774 35.8851L39.6744 35.3122C39.6888 35.2273 39.6747 35.14 39.6344 35.0639C39.5941 34.9878 39.5297 34.9272 39.4513 34.8915C39.373 34.8557 39.285 34.8469 39.2011 34.8663C39.1172 34.8858 39.0421 34.9324 38.9874 34.9989C38.8067 35.2187 37.5898 36.714 36.8608 37.993C36.8495 37.6629 36.8417 37.3115 36.8383 36.9824C36.8375 36.8979 36.8092 36.816 36.7579 36.7489C36.7066 36.6818 36.6348 36.6332 36.5535 36.6103C36.4722 36.5874 36.3856 36.5915 36.3068 36.622C36.228 36.6524 36.1612 36.7076 36.1164 36.7793C35.1974 38.2512 32.5451 42.1584 31.0045 43.095C29.463 42.1581 26.8047 38.2512 25.8834 36.7789C25.8386 36.7073 25.7718 36.6522 25.693 36.6218C25.6142 36.5913 25.5277 36.5873 25.4464 36.6101C25.3651 36.633 25.2935 36.6816 25.2421 36.7487C25.1908 36.8157 25.1625 36.8976 25.1617 36.982C25.1583 37.3111 25.1505 37.6625 25.1392 37.9926C24.4102 36.7136 23.1933 35.2184 23.0126 34.9985C22.9579 34.932 22.8828 34.8854 22.7989 34.8659C22.715 34.8465 22.627 34.8553 22.5487 34.8911C22.4703 34.9268 22.406 34.9874 22.3656 35.0635C22.3253 35.1396 22.3112 35.2269 22.3256 35.3118L22.4226 35.8847C21.9109 35.3199 21.168 34.5423 20.1424 33.5598C18.028 31.5339 18.6123 28.5319 18.6183 28.5026C18.6338 28.428 18.6272 28.3505 18.5993 28.2796C18.5713 28.2087 18.5233 28.1475 18.461 28.1036C18.3987 28.0597 18.3249 28.035 18.2488 28.0324C18.1726 28.0299 18.0974 28.0497 18.0324 28.0895C17.724 28.2775 17.4054 28.5838 17.1246 28.898C17.364 27.8064 17.8093 26.6637 17.9606 26.2904C18.4488 26.027 20.1788 25.0404 21.2675 23.7416C20.9617 25.0044 21.0013 26.1912 21.3896 27.2045C21.7766 28.2141 22.4943 29.0572 23.5328 29.728C23.5438 29.7893 23.5694 29.847 23.6075 29.8963C24.0595 30.4726 25.0569 31.8163 25.682 33.201C25.9134 33.7132 26.1337 34.168 26.337 34.553C26.702 35.2514 27.3121 35.7905 28.0502 36.0667C28.2326 36.3155 28.6978 36.8298 29.6087 37.1628C30.0675 37.3309 30.5522 37.4171 31.0408 37.4174C31.5353 37.4178 32.0257 37.328 32.488 37.1524C33.3683 36.8171 33.7921 36.3184 33.962 36.0619C34.6946 35.7842 35.2998 35.2473 35.6628 34.553C35.866 34.168 36.0865 33.7132 36.3178 33.201C36.9421 31.8187 37.9403 30.4734 38.3925 29.8963C38.4306 29.847 38.4563 29.7892 38.4672 29.7278C39.5056 29.057 40.2233 28.214 40.6102 27.2044C40.9986 26.191 41.0382 25.0042 40.7324 23.7414C41.8211 25.0405 43.551 26.0269 44.0393 26.2902C44.1905 26.6632 44.6358 27.8059 44.8752 28.8979C44.5945 28.5842 44.2759 28.2779 43.9675 28.0898ZM25.0078 30.4811C25.3328 30.6117 25.6775 30.7312 26.0419 30.8398C25.9908 31.2359 25.9598 31.6207 25.9488 31.9942C25.6441 31.4406 25.3118 30.9223 25.0078 30.4811ZM32.348 36.213C32.4298 36.2274 32.5114 36.238 32.593 36.2458C32.4696 36.3134 32.3417 36.3725 32.2102 36.4225C31.7639 36.5884 31.2876 36.658 30.8125 36.6267C30.3374 36.5954 29.8743 36.4638 29.4537 36.2407C29.5198 36.2334 29.586 36.2251 29.6521 36.213C30.1609 36.1193 30.6302 35.8761 31 35.5145C31.3699 35.8761 31.8393 36.1193 32.3481 36.213H32.348ZM29.0869 33.0723C29.0869 32.2695 29.9703 31.6163 31.0562 31.6163C32.142 31.6163 33.0255 32.2695 33.0255 33.0723C33.0255 33.8752 32.1421 34.5284 31.0562 34.5284C29.9703 34.5284 29.087 33.875 29.087 33.0721L29.0869 33.0723ZM35.9579 30.84C36.322 30.7312 36.6667 30.6117 36.992 30.4813C36.6881 30.9225 36.3559 31.4409 36.051 31.9945C36.0403 31.621 36.0092 31.2361 35.958 30.8398L35.9579 30.84ZM45.4951 26.4664C45.2175 26.1148 44.8866 25.8055 44.5192 25.6609C44.4086 25.6036 41.8449 24.2605 40.9098 22.6496C39.7976 20.7334 37.5785 19.7129 36.4041 19.7129C34.7565 19.7129 33.9071 20.6759 33.8771 22.5743C33.7217 22.8499 33.5999 23.1432 33.5144 23.4479C33.4865 23.545 33.4974 23.6492 33.5449 23.7385C33.5923 23.8277 33.6726 23.8951 33.7687 23.9263C33.8649 23.9575 33.9694 23.9502 34.0602 23.9059C34.151 23.8615 34.2211 23.7837 34.2556 23.6887C34.4481 23.715 34.6421 23.7288 34.8364 23.7299C35.5166 23.7299 36.0708 23.549 36.4894 23.1884C36.984 22.7629 37.1603 22.1905 37.2226 21.803C37.3123 21.7868 37.3935 21.7396 37.4521 21.6697C37.5106 21.5998 37.5428 21.5116 37.5431 21.4204C37.5433 21.3292 37.5116 21.2408 37.4535 21.1706C37.3953 21.1003 37.3144 21.0527 37.2248 21.0359C36.378 20.892 35.5082 21.0787 34.7951 21.5577C35.0217 20.8224 35.5367 20.4941 36.404 20.4941C37.2223 20.4941 38.1349 20.9623 38.8871 21.5612C38.6193 22.2522 37.7862 24.1106 36.4171 24.5893C35.7296 24.8295 35.0071 24.687 34.207 24.1534C34.1643 24.1249 34.1164 24.1051 34.0661 24.0952C34.0158 24.0852 33.964 24.0852 33.9137 24.0953C33.8634 24.1054 33.8156 24.1252 33.7729 24.1538C33.7303 24.1823 33.6937 24.219 33.6653 24.2616C33.6368 24.3043 33.617 24.3522 33.6071 24.4025C33.5971 24.4528 33.5971 24.5046 33.6072 24.5549C33.6173 24.6052 33.6371 24.6531 33.6657 24.6957C33.6942 24.7383 33.7309 24.7749 33.7735 24.8034C34.7774 25.4729 35.7536 25.6489 36.675 25.3268C38.0751 24.8372 38.9688 23.3027 39.4064 22.3424C39.8762 23.3367 40.537 25.2133 39.8807 26.9253C39.3349 28.3493 37.9745 29.403 35.8342 30.0612C35.7169 29.4439 35.5653 28.8336 35.3802 28.2331C35.0803 27.2388 34.6976 26.2713 34.2362 25.3409C34.2127 25.295 34.1803 25.2543 34.141 25.221C34.1017 25.1878 34.0562 25.1626 34.0071 25.147C33.958 25.1313 33.9063 25.1256 33.855 25.13C33.8037 25.1345 33.7537 25.149 33.7081 25.1728C33.6624 25.1966 33.6219 25.2293 33.5889 25.2688C33.5558 25.3083 33.531 25.354 33.5157 25.4032C33.5004 25.4524 33.4949 25.5041 33.4997 25.5554C33.5045 25.6067 33.5193 25.6565 33.5435 25.702C33.5669 25.7476 35.895 30.2734 35.1119 33.9175C35.0644 34.0112 35.0177 34.102 34.972 34.1884C34.4824 35.1156 33.4826 35.6198 32.484 35.4437C32.2675 35.4033 32.0602 35.3239 31.8722 35.2093C32.9917 34.9259 33.8067 34.0752 33.8067 33.0725C33.8067 31.8389 32.5728 30.8352 31.0562 30.8352C29.5395 30.8352 28.3056 31.8389 28.3056 33.0725C28.3056 34.0516 29.0831 34.885 30.1619 35.1877C29.9649 35.3137 29.7455 35.4006 29.5156 35.4437C28.517 35.6206 27.5173 35.1155 27.0276 34.1884C26.982 34.102 26.9353 34.0113 26.8878 33.9175C26.1056 30.2787 28.4326 25.7475 28.4563 25.7019C28.5033 25.6101 28.5121 25.5034 28.4808 25.4052C28.4495 25.3069 28.3806 25.225 28.2891 25.1774C28.1977 25.1297 28.0911 25.1202 27.9926 25.1508C27.8941 25.1814 27.8118 25.2497 27.7635 25.3409C27.302 26.2713 26.9193 27.2388 26.6194 28.2331C26.4343 28.8336 26.2827 29.4439 26.1654 30.0612C24.0271 29.4035 22.667 28.3511 22.1203 26.929C21.6322 25.6592 21.8834 24.2984 22.18 23.3804C22.2953 23.0258 22.4332 22.679 22.593 22.342C23.0305 23.3023 23.9243 24.8372 25.3246 25.3268C26.246 25.6487 27.2222 25.4728 28.2261 24.8034C28.3123 24.7459 28.3721 24.6565 28.3924 24.5549C28.4128 24.4533 28.3919 24.3478 28.3344 24.2616C28.2769 24.1754 28.1875 24.1156 28.086 24.0953C27.9844 24.075 27.8789 24.0959 27.7927 24.1534C26.9931 24.6865 26.2706 24.8292 25.5841 24.5898C24.2116 24.111 23.374 22.2344 23.1094 21.5515C23.9885 20.8764 24.9794 20.4941 25.5959 20.4941C26.4631 20.4941 26.978 20.8223 27.2047 21.5575C26.4916 21.0785 25.6218 20.8918 24.775 21.0359C24.6855 21.0528 24.6048 21.1005 24.5467 21.1707C24.4887 21.2409 24.4571 21.3292 24.4573 21.4203C24.4576 21.5114 24.4897 21.5995 24.5482 21.6693C24.6066 21.7392 24.6876 21.7864 24.7772 21.8028C24.8397 22.1903 25.0157 22.7628 25.5104 23.1884C25.9294 23.549 26.4831 23.7299 27.1634 23.7299C27.3577 23.7288 27.5517 23.715 27.7442 23.6887C27.7787 23.7837 27.8488 23.8615 27.9396 23.9059C28.0304 23.9502 28.1349 23.9575 28.2311 23.9263C28.3272 23.8951 28.4075 23.8277 28.4549 23.7385C28.5023 23.6492 28.5133 23.545 28.4854 23.4479C28.3999 23.1432 28.2781 22.8499 28.1227 22.5742C28.0927 20.6758 27.2433 19.7129 25.5957 19.7129C24.4213 19.7129 22.2022 20.7334 21.09 22.6496C20.1551 24.2602 17.5918 25.6033 17.4806 25.6609C17.1135 25.8053 16.7829 26.1145 16.5055 26.4655C17.0758 23.8718 19.0334 21.5943 19.0573 21.5671C19.1161 21.4997 19.1499 21.4141 19.1532 21.3248C19.1565 21.2354 19.129 21.1476 19.0754 21.076C19.0217 21.0044 18.9451 20.9535 18.8584 20.9316C18.7716 20.9097 18.68 20.9183 18.5988 20.9559L16.9383 21.7237C17.6354 19.6136 20.8876 16.8948 22.2184 15.9351C22.2806 15.8903 22.3282 15.8281 22.3554 15.7564C22.3825 15.6847 22.3879 15.6066 22.371 15.5318C22.354 15.457 22.3154 15.3889 22.26 15.3359C22.2046 15.2829 22.1348 15.2474 22.0594 15.2337L22.9426 14.9063C23.0055 14.883 23.0613 14.8439 23.1047 14.7927C23.1481 14.7415 23.1776 14.6801 23.1903 14.6142C23.2031 14.5483 23.1986 14.4803 23.1774 14.4166C23.1562 14.353 23.119 14.2959 23.0693 14.2508L22.2524 13.5092L24.602 13.9925C24.6523 14.0028 24.7041 14.0032 24.7545 13.9935C24.8049 13.9838 24.8529 13.9643 24.8958 13.936C24.9386 13.9078 24.9755 13.8714 25.0043 13.8289C25.0331 13.7864 25.0532 13.7387 25.0636 13.6884C25.0739 13.6381 25.0742 13.5863 25.0646 13.5359C25.0549 13.4855 25.0353 13.4375 25.0071 13.3947C24.9789 13.3518 24.9425 13.3149 24.9 13.2861C24.8575 13.2573 24.8097 13.2372 24.7595 13.2269L21.0115 12.4559C20.9276 12.4387 20.8404 12.4495 20.7632 12.4866C20.6861 12.5238 20.6233 12.5853 20.5845 12.6617C20.5457 12.738 20.5331 12.825 20.5486 12.9092C20.5641 12.9935 20.6068 13.0703 20.6702 13.1278L22.0687 14.3969L19.9922 15.167C19.9077 15.1984 19.8367 15.2579 19.7911 15.3356C19.7455 15.4134 19.7281 15.5045 19.742 15.5935C19.7559 15.6825 19.8001 15.764 19.8672 15.8242C19.9343 15.8843 20.0202 15.9194 20.1102 15.9235L20.9039 15.9597C20.4856 16.2951 19.9538 16.7409 19.3961 17.2576C18.8923 12.7431 19.5133 9.63758 20.1461 7.79664C20.2566 7.475 20.3711 7.18047 20.4857 6.91211C21.1282 8.45461 22.267 9.47586 23.1844 10.0905C25.0985 11.3728 25.8228 12.2705 26.0762 12.6671C26.0945 12.6953 26.1164 12.721 26.1413 12.7436C26.0107 12.9815 25.8992 13.2295 25.8079 13.4851C25.7915 13.5337 25.7849 13.5851 25.7884 13.6362C25.7919 13.6874 25.8054 13.7374 25.8282 13.7834C25.851 13.8293 25.8827 13.8703 25.9213 13.9041C25.96 13.9378 26.0049 13.9636 26.0535 13.9799C26.1022 13.9963 26.1535 14.0029 26.2047 13.9994C26.2559 13.9959 26.3059 13.9824 26.3518 13.9596C26.3978 13.9368 26.4388 13.9051 26.4725 13.8665C26.5062 13.8278 26.532 13.7829 26.5484 13.7343C26.5546 13.7156 27.2056 11.8749 28.3361 11.8749C28.4139 11.875 28.49 11.8519 28.5546 11.8084C28.6192 11.7649 28.6692 11.7031 28.6984 11.6309C28.7275 11.5587 28.7344 11.4795 28.7181 11.4034C28.7019 11.3272 28.6632 11.2577 28.6071 11.2037C28.5837 11.1809 28.3303 10.9374 27.9707 10.629C28.3256 10.4684 28.6949 10.3418 29.0736 10.251C30.4395 9.89831 31.8683 9.86513 33.2491 10.1541C33.6139 10.2271 33.9706 10.336 34.314 10.4792C33.7846 10.8906 33.4297 11.1719 33.421 11.1788L33.4221 11.1802C33.3583 11.2302 33.3117 11.299 33.2889 11.3768C33.2661 11.4547 33.2681 11.5377 33.2948 11.6143C33.3215 11.6909 33.3715 11.7573 33.4377 11.8041C33.504 11.8509 33.5832 11.8759 33.6643 11.8755C34.6127 11.8755 35.2762 13.2172 35.452 13.7348C35.4856 13.8324 35.5564 13.9127 35.6489 13.9583C35.7415 14.0039 35.8483 14.011 35.9461 13.9781C36.0439 13.9451 36.1247 13.8749 36.1708 13.7826C36.217 13.6903 36.2247 13.5835 36.1924 13.4855C36.1424 13.343 36.0853 13.2031 36.0212 13.0664C36.0469 13.0309 36.0664 12.9913 36.0788 12.9492C36.2498 12.3659 36.8506 11.06 38.8864 9.70859C39.2278 9.48203 40.7353 8.41953 41.4947 6.86672C41.616 7.14758 41.7374 7.45664 41.8541 7.79695C42.4869 9.63765 43.1078 12.7432 42.6041 17.2579C42.0463 16.7412 41.5145 16.2954 41.0963 15.96L41.89 15.9238C41.98 15.9197 42.0659 15.8846 42.1329 15.8245C42.2 15.7643 42.2443 15.6828 42.2582 15.5938C42.272 15.5048 42.2547 15.4137 42.2091 15.336C42.1635 15.2582 42.0925 15.1987 42.008 15.1673L39.932 14.3976L41.3301 13.1285C41.3935 13.071 41.4363 12.9942 41.4518 12.9099C41.4673 12.8257 41.4546 12.7387 41.4159 12.6624C41.3771 12.586 41.3143 12.5245 41.2371 12.4873C41.16 12.4502 41.0727 12.4394 40.9888 12.4566L37.2409 13.2276C37.1906 13.2379 37.1429 13.258 37.1004 13.2868C37.0579 13.3156 37.0215 13.3525 36.9932 13.3954C36.965 13.4382 36.9455 13.4862 36.9358 13.5366C36.9261 13.587 36.9264 13.6388 36.9368 13.6891C36.9471 13.7394 36.9672 13.7871 36.996 13.8296C37.0248 13.8721 37.0617 13.9085 37.1046 13.9367C37.1474 13.965 37.1954 13.9845 37.2458 13.9942C37.2962 14.0039 37.348 14.0035 37.3983 13.9932L39.748 13.5099L38.931 14.2515C38.8813 14.2966 38.8441 14.3537 38.8229 14.4173C38.8017 14.481 38.7973 14.549 38.81 14.6149C38.8227 14.6808 38.8522 14.7422 38.8956 14.7934C38.939 14.8446 38.9948 14.8837 39.0578 14.907L39.941 15.2345C39.8655 15.2481 39.7957 15.2836 39.7403 15.3366C39.6849 15.3896 39.6463 15.4577 39.6294 15.5325C39.6124 15.6073 39.6179 15.6854 39.645 15.7571C39.6721 15.8288 39.7198 15.891 39.782 15.9358C41.1129 16.8952 44.3656 19.6131 45.0623 21.7248L43.4012 20.9566C43.32 20.919 43.2284 20.9104 43.1417 20.9323C43.0549 20.9542 42.9783 21.0051 42.9247 21.0767C42.871 21.1483 42.8435 21.2361 42.8468 21.3255C42.8501 21.4148 42.884 21.5004 42.9427 21.5678C42.9664 21.5941 44.926 23.8695 45.4951 26.4664ZM36.4308 21.7867C36.3719 22.0983 36.2137 22.3825 35.9798 22.5966C35.6586 22.873 35.1851 22.9867 34.5694 22.9379C35.0754 22.073 35.8702 21.8359 36.4308 21.7863V21.7867ZM27.4306 22.9375C26.8181 22.9862 26.3462 22.8737 26.0251 22.6005C25.7884 22.3861 25.6284 22.1002 25.5694 21.7863C26.1299 21.8363 26.9246 22.0731 27.4306 22.9375Z" fill="url(#paint4_linear)"/>
<path d="M32.7494 21.218C32.7723 21.1183 32.7551 21.0137 32.7016 20.9265C32.6481 20.8394 32.5625 20.7767 32.4633 20.7519C32.3641 20.7271 32.2591 20.7422 32.1709 20.794C32.0827 20.8457 32.0184 20.93 31.9916 21.0287C31.973 21.1031 31.5452 22.8676 32.3762 24.4181C32.4252 24.5094 32.5084 24.5775 32.6076 24.6075C32.7068 24.6375 32.8138 24.6268 32.9051 24.5778C32.9964 24.5289 33.0645 24.4457 33.0945 24.3465C33.1244 24.2473 33.1138 24.1403 33.0648 24.049C32.3817 22.7747 32.7429 21.2453 32.7494 21.218Z" fill="url(#paint5_linear)"/>
<path d="M35.5065 17.851C35.23 17.8661 34.9551 17.9027 34.6842 17.9603C34.0501 18.0969 33.6119 18.3301 33.3818 18.6535C33.3217 18.7379 33.2976 18.8427 33.3148 18.9449C33.332 19.0471 33.3891 19.1382 33.4735 19.1983C33.5579 19.2584 33.6627 19.2825 33.7649 19.2653C33.8671 19.2481 33.9583 19.191 34.0184 19.1066C34.2262 18.8146 35.032 18.6531 35.538 18.6316C35.6415 18.6274 35.7392 18.5823 35.8094 18.5062C35.8797 18.4301 35.9169 18.3292 35.9127 18.2256C35.9086 18.1221 35.8635 18.0245 35.7874 17.9542C35.7112 17.884 35.6103 17.8468 35.5068 17.851H35.5065Z" fill="url(#paint6_linear)"/>
<defs>
<linearGradient id="paint0_linear" x1="31" y1="44" x2="31" y2="54" gradientUnits="userSpaceOnUse">
<stop offset="0.383333" stop-color="#27D7A2" stop-opacity="0.97"/>
<stop offset="0.898958" stop-color="#51A7C2"/>
</linearGradient>
<linearGradient id="paint1_linear" x1="30.9594" y1="39.8594" x2="30.9594" y2="14.9256" gradientUnits="userSpaceOnUse">
<stop stop-color="#4B9083"/>
<stop offset="0.0810811" stop-color="#2FAC87"/>
<stop offset="0.166023" stop-color="#13CF96"/>
<stop offset="0.335907" stop-color="#2EAFAE"/>
<stop offset="0.702703" stop-color="#46C39D"/>
<stop offset="1" stop-color="#71D79A"/>
</linearGradient>
<linearGradient id="paint2_linear" x1="324.148" y1="1806.75" x2="324.148" y2="564.897" gradientUnits="userSpaceOnUse">
<stop stop-color="#4B9083"/>
<stop offset="0.0810811" stop-color="#2FAC87"/>
<stop offset="0.166023" stop-color="#13CF96"/>
<stop offset="0.335907" stop-color="#2EAFAE"/>
<stop offset="0.702703" stop-color="#46C39D"/>
<stop offset="1" stop-color="#71D79A"/>
</linearGradient>
<linearGradient id="paint3_linear" x1="572.258" y1="669.657" x2="572.258" y2="216.444" gradientUnits="userSpaceOnUse">
<stop stop-color="#4B9083"/>
<stop offset="0.0810811" stop-color="#2FAC87"/>
<stop offset="0.166023" stop-color="#13CF96"/>
<stop offset="0.335907" stop-color="#2EAFAE"/>
<stop offset="0.702703" stop-color="#46C39D"/>
<stop offset="1" stop-color="#71D79A"/>
</linearGradient>
<linearGradient id="paint4_linear" x1="7915.49" y1="18292.4" x2="7915.49" y2="5576.15" gradientUnits="userSpaceOnUse">
<stop stop-color="#4B9083"/>
<stop offset="0.0810811" stop-color="#2FAC87"/>
<stop offset="0.166023" stop-color="#13CF96"/>
<stop offset="0.335907" stop-color="#2EAFAE"/>
<stop offset="0.702703" stop-color="#46C39D"/>
<stop offset="1" stop-color="#71D79A"/>
</linearGradient>
<linearGradient id="paint5_linear" x1="374.59" y1="1803.47" x2="374.59" y2="563.903" gradientUnits="userSpaceOnUse">
<stop stop-color="#4B9083"/>
<stop offset="0.0810811" stop-color="#2FAC87"/>
<stop offset="0.166023" stop-color="#13CF96"/>
<stop offset="0.335907" stop-color="#2EAFAE"/>
<stop offset="0.702703" stop-color="#46C39D"/>
<stop offset="1" stop-color="#71D79A"/>
</linearGradient>
<linearGradient id="paint6_linear" x1="820.19" y1="669.656" x2="820.19" y2="216.443" gradientUnits="userSpaceOnUse">
<stop stop-color="#4B9083"/>
<stop offset="0.0810811" stop-color="#2FAC87"/>
<stop offset="0.166023" stop-color="#13CF96"/>
<stop offset="0.335907" stop-color="#2EAFAE"/>
<stop offset="0.702703" stop-color="#46C39D"/>
<stop offset="1" stop-color="#71D79A"/>
</linearGradient>
</defs>
</svg>
